<svg xmlns="http://www.w3.org/2000/svg" viewBox="0 0 188.973 188.973"><path d="M34.016 94.486h60.472V34.012H34.016v60.474m60.472 60.471h60.473V94.483H94.488v60.474" fill="#4194d7"/><path d="M0 94.486h188.976M94.488-.003v188.976" fill="none" stroke="#231f20" stroke-width=".589" stroke-miterlimit="10"/><path d="M103.785 84.534h5.23v-42.36h-5.546v42.36h.316m19.265-23.007h-2.375V46.13h.986c5.646 0 8.706 1.249 8.706 7.85 0 6.284-2.8 7.546-7.316 7.546zm-.967-19.354h-6.927v.315l-.002 41.732v.314h5.516v-.314l.005-18.736h2.134c8.555 0 13.078-4.042 13.078-11.687 0-7.712-4.645-11.624-13.804-11.624m17.804 42.361h5.209v-42.36h-5.523v42.36h.314m-95.404 23.611h2.333c2.979 0 4.34 0 4.34 6.64 0 7.847-3.289 7.847-4.693 7.847h-1.98zm1.726 34.45h-1.726v-16.003h3.069c1.917 0 3.248.402 4.073 1.228 1.346 1.345 1.344 3.715 1.344 6.716 0 8.059-2.834 8.059-6.76 8.059zm7.185-18.471c2.318-1.222 3.281-4.057 3.281-9.52 0-7.106-2.996-10.416-9.427-10.416H38.96v42.361h8.65c9.753 0 10.88-6.564 10.88-11.504 0-7.7-2.376-9.934-5.096-10.921m8.642 22.426h5.202v-42.362h-5.517v42.361h.315m21.975-42.361l-.042.265-3.875 23.343-3.646-23.341-.042-.267h-5.53l.06.367 6.87 41.73.044.264h4.187l.047-.26 7.396-41.73.063-.371h-5.532" fill="#231f20"/></svg>